<?xml version="1.0" encoding="UTF-8" standalone="no"?>
<svg
   xmlns:dc="http://purl.org/dc/elements/1.1/"
   xmlns:cc="http://creativecommons.org/ns#"
   xmlns:rdf="http://www.w3.org/1999/02/22-rdf-syntax-ns#"
   xmlns:svg="http://www.w3.org/2000/svg"
   xmlns="http://www.w3.org/2000/svg"
   xmlns:sodipodi="http://sodipodi.sourceforge.net/DTD/sodipodi-0.dtd"
   xmlns:inkscape="http://www.inkscape.org/namespaces/inkscape"
   inkscape:version="1.0 (4035a4fb49, 2020-05-01)"
   sodipodi:docname="OLD-Logo.svg"
   xml:space="preserve"
   style="enable-background:new 0 0 128 128;"
   viewBox="0 0 128 128"
   y="0px"
   x="0px"
   id="Layer_1"
   version="1.1"><metadata
   id="metadata15"><rdf:RDF><cc:Work
       rdf:about=""><dc:format>image/svg+xml</dc:format><dc:type
         rdf:resource="http://purl.org/dc/dcmitype/StillImage" /><dc:title></dc:title></cc:Work></rdf:RDF></metadata><defs
   id="defs13" /><sodipodi:namedview
   inkscape:current-layer="Layer_1"
   inkscape:window-maximized="1"
   inkscape:window-y="54"
   inkscape:window-x="-8"
   inkscape:cy="64"
   inkscape:cx="64"
   inkscape:zoom="4.28125"
   showgrid="false"
   id="namedview11"
   inkscape:window-height="715"
   inkscape:window-width="1360"
   inkscape:pageshadow="2"
   inkscape:pageopacity="0"
   guidetolerance="10"
   gridtolerance="10"
   objecttolerance="10"
   borderopacity="1"
   bordercolor="#666666"
   pagecolor="#ffffff" />
<style
   id="style2"
   type="text/css">
	.st0{fill:#FF2AD4;}
	.st1{fill:#FFC707;}
</style>
<g
   transform="matrix(1.0305958,0,0,1.0305958,-1.9581312,-1.9581312)"
   id="g8">
	<path
   id="path4"
   d="m 103.7,49.9 -4.3,51 L 64,61 28.7,100.9 24.4,49.9 H 3.5 c -1,4.5 -1.6,9.2 -1.6,14.1 0,34.3 27.8,62.1 62.1,62.1 34.3,0 62.1,-27.8 62.1,-62.1 0,-4.8 -0.6,-9.5 -1.6,-14.1 z"
   class="st0" />
	<path
   id="path6"
   d="m 37.6,33.6 1.7,36 24.7,-28.7 24.7,28.8 1.7,-36 h 27.8 C 107.6,14.7 87.3,1.9 64,1.9 40.7,1.9 20.4,14.7 9.8,33.6 Z"
   class="st1" />
</g>
</svg>
